<svg width="800" height="600" viewBox="0 0 800 600" fill="none" xmlns="http://www.w3.org/2000/svg">
  <defs>
    <linearGradient id="bg1" x1="0%" y1="0%" x2="100%" y2="100%">
      <stop offset="0%" style="stop-color:#1a1a2e"/>
      <stop offset="100%" style="stop-color:#16213e"/>
    </linearGradient>
  </defs>

  <rect width="800" height="600" fill="url(#bg1)"/>

  <!-- Browser Chrome -->
  <rect x="50" y="50" width="700" height="500" rx="16" fill="#0f0f23" stroke="#2a2a4a" stroke-width="1"/>
  <rect x="50" y="50" width="700" height="45" rx="16" fill="#1a1a2e"/>
  <circle cx="80" cy="72" r="7" fill="#ff5f57"/>
  <circle cx="105" cy="72" r="7" fill="#ffbd2e"/>
  <circle cx="130" cy="72" r="7" fill="#28ca42"/>
  <rect x="200" y="62" width="400" height="22" rx="6" fill="#0f0f23"/>

  <!-- Navigation -->
  <rect x="70" y="110" width="100" height="30" rx="6" fill="#4A9FF5"/>
  <rect x="190" y="115" width="60" height="20" rx="4" fill="#2a2a4a"/>
  <rect x="270" y="115" width="50" height="20" rx="4" fill="#2a2a4a"/>
  <rect x="340" y="115" width="60" height="20" rx="4" fill="#2a2a4a"/>
  <rect x="620" y="110" width="110" height="30" rx="15" fill="#C8FF00"/>

  <!-- Hero Image Area -->
  <rect x="70" y="160" width="400" height="250" rx="12" fill="#16213e"/>
  <rect x="90" y="180" width="120" height="20" rx="4" fill="#4A9FF5" fill-opacity="0.3"/>
  <rect x="90" y="220" width="280" height="40" rx="4" fill="#ffffff" fill-opacity="0.9"/>
  <rect x="90" y="280" width="320" height="15" rx="2" fill="#ffffff" fill-opacity="0.3"/>
  <rect x="90" y="305" width="280" height="15" rx="2" fill="#ffffff" fill-opacity="0.3"/>
  <rect x="90" y="350" width="140" height="45" rx="8" fill="#4A9FF5"/>

  <!-- Property Cards -->
  <rect x="490" y="160" width="240" height="120" rx="10" fill="#1a1a2e" stroke="#2a2a4a" stroke-width="1"/>
  <rect x="505" y="175" width="80" height="60" rx="6" fill="#2a2a4a"/>
  <rect x="600" y="180" width="110" height="12" rx="2" fill="#ffffff" fill-opacity="0.8"/>
  <rect x="600" y="200" width="80" height="10" rx="2" fill="#ffffff" fill-opacity="0.3"/>
  <rect x="600" y="220" width="60" height="10" rx="2" fill="#C8FF00"/>

  <rect x="490" y="290" width="240" height="120" rx="10" fill="#1a1a2e" stroke="#2a2a4a" stroke-width="1"/>
  <rect x="505" y="305" width="80" height="60" rx="6" fill="#2a2a4a"/>
  <rect x="600" y="310" width="110" height="12" rx="2" fill="#ffffff" fill-opacity="0.8"/>
  <rect x="600" y="330" width="80" height="10" rx="2" fill="#ffffff" fill-opacity="0.3"/>
  <rect x="600" y="350" width="60" height="10" rx="2" fill="#C8FF00"/>

  <!-- Search Bar -->
  <rect x="70" y="430" width="660" height="50" rx="25" fill="#1a1a2e" stroke="#2a2a4a" stroke-width="1"/>
  <circle cx="105" cy="455" r="12" stroke="#4A9FF5" stroke-width="2" fill="none"/>
  <rect x="130" y="448" width="100" height="14" rx="2" fill="#2a2a4a"/>
  <rect x="600" y="440" width="110" height="30" rx="15" fill="#4A9FF5"/>

  <!-- Stats -->
  <text x="100" y="520" fill="#C8FF00" font-family="Arial" font-size="28" font-weight="bold">200+</text>
  <text x="100" y="540" fill="#ffffff" fill-opacity="0.5" font-family="Arial" font-size="12">Properties</text>

  <text x="300" y="520" fill="#C8FF00" font-family="Arial" font-size="28" font-weight="bold">50+</text>
  <text x="300" y="540" fill="#ffffff" fill-opacity="0.5" font-family="Arial" font-size="12">Agents</text>

  <text x="500" y="520" fill="#C8FF00" font-family="Arial" font-size="28" font-weight="bold">4.9</text>
  <text x="500" y="540" fill="#ffffff" fill-opacity="0.5" font-family="Arial" font-size="12">Rating</text>
</svg>
