<svg width="800" height="600" viewBox="0 0 800 600" fill="none" xmlns="http://www.w3.org/2000/svg">
  <defs>
    <linearGradient id="bg3" x1="0%" y1="0%" x2="100%" y2="100%">
      <stop offset="0%" style="stop-color:#0f0f0f"/>
      <stop offset="100%" style="stop-color:#1a1a1a"/>
    </linearGradient>
    <linearGradient id="accent3" x1="0%" y1="0%" x2="100%" y2="0%">
      <stop offset="0%" style="stop-color:#C8FF00"/>
      <stop offset="100%" style="stop-color:#9EF01A"/>
    </linearGradient>
  </defs>

  <rect width="800" height="600" fill="url(#bg3)"/>

  <!-- Browser Frame -->
  <rect x="40" y="40" width="720" height="520" rx="16" fill="#1a1a1a" stroke="#333" stroke-width="1"/>
  <rect x="40" y="40" width="720" height="45" rx="16" fill="#262626"/>
  <circle cx="70" cy="62" r="6" fill="#ff5f57"/>
  <circle cx="92" cy="62" r="6" fill="#ffbd2e"/>
  <circle cx="114" cy="62" r="6" fill="#28ca42"/>
  <rect x="180" y="52" width="400" height="20" rx="6" fill="#1a1a1a"/>

  <!-- Top Banner -->
  <rect x="60" y="100" width="680" height="35" rx="6" fill="#C8FF00" fill-opacity="0.1"/>
  <text x="80" y="123" fill="#C8FF00" font-family="Arial" font-size="12">Discover Your Dream Property</text>
  <rect x="620" y="108" width="100" height="20" rx="4" fill="#C8FF00" fill-opacity="0.2"/>

  <!-- Navigation -->
  <rect x="60" y="150" width="80" height="25" rx="4" fill="#333"/>
  <rect x="300" y="155" width="50" height="15" rx="2" fill="#404040"/>
  <rect x="370" y="155" width="60" height="15" rx="2" fill="#404040"/>
  <rect x="450" y="155" width="70" height="15" rx="2" fill="#404040"/>
  <rect x="540" y="155" width="50" height="15" rx="2" fill="#404040"/>
  <rect x="640" y="150" width="100" height="25" rx="12" fill="url(#accent3)"/>

  <!-- Hero Section -->
  <rect x="60" y="195" width="350" height="240" rx="12" fill="#262626"/>

  <text x="80" y="235" fill="#ffffff" font-family="Arial" font-size="12" fill-opacity="0.5">Find Your</text>
  <text x="80" y="280" fill="#ffffff" font-family="Arial" font-size="36" font-weight="bold">Dream</text>
  <text x="80" y="320" fill="#C8FF00" font-family="Arial" font-size="36" font-weight="bold">Property</text>

  <rect x="80" y="350" width="150" height="15" rx="2" fill="#ffffff" fill-opacity="0.3"/>
  <rect x="80" y="375" width="200" height="15" rx="2" fill="#ffffff" fill-opacity="0.2"/>

  <rect x="80" y="405" width="100" height="35" rx="8" fill="transparent" stroke="#C8FF00" stroke-width="2"/>
  <rect x="200" y="405" width="120" height="35" rx="8" fill="url(#accent3)"/>

  <!-- Building Image Placeholder -->
  <rect x="430" y="195" width="290" height="240" rx="12" fill="#1a1a1a"/>
  <rect x="450" y="215" width="100" height="200" rx="8" fill="#333"/>
  <rect x="460" y="225" width="30" height="25" rx="2" fill="#4A9FF5" fill-opacity="0.3"/>
  <rect x="500" y="225" width="30" height="25" rx="2" fill="#4A9FF5" fill-opacity="0.5"/>
  <rect x="460" y="260" width="30" height="25" rx="2" fill="#C8FF00" fill-opacity="0.3"/>
  <rect x="500" y="260" width="30" height="25" rx="2" fill="#4A9FF5" fill-opacity="0.3"/>
  <rect x="460" y="295" width="30" height="25" rx="2" fill="#4A9FF5" fill-opacity="0.4"/>
  <rect x="500" y="295" width="30" height="25" rx="2" fill="#C8FF00" fill-opacity="0.5"/>

  <rect x="570" y="215" width="130" height="200" rx="8" fill="#262626"/>
  <rect x="580" y="225" width="40" height="30" rx="2" fill="#4A9FF5" fill-opacity="0.4"/>
  <rect x="630" y="225" width="40" height="30" rx="2" fill="#4A9FF5" fill-opacity="0.3"/>
  <rect x="580" y="265" width="40" height="30" rx="2" fill="#C8FF00" fill-opacity="0.4"/>
  <rect x="630" y="265" width="40" height="30" rx="2" fill="#4A9FF5" fill-opacity="0.5"/>

  <!-- Feature Cards -->
  <rect x="60" y="455" width="160" height="85" rx="10" fill="#262626"/>
  <circle cx="90" cy="485" r="15" fill="#C8FF00" fill-opacity="0.2"/>
  <rect x="115" y="475" width="85" height="8" rx="2" fill="#ffffff" fill-opacity="0.8"/>
  <rect x="115" y="490" width="70" height="6" rx="2" fill="#ffffff" fill-opacity="0.3"/>

  <rect x="240" y="455" width="160" height="85" rx="10" fill="#262626"/>
  <circle cx="270" cy="485" r="15" fill="#4A9FF5" fill-opacity="0.2"/>
  <rect x="295" y="475" width="85" height="8" rx="2" fill="#ffffff" fill-opacity="0.8"/>
  <rect x="295" y="490" width="70" height="6" rx="2" fill="#ffffff" fill-opacity="0.3"/>

  <rect x="420" y="455" width="160" height="85" rx="10" fill="#262626"/>
  <circle cx="450" cy="485" r="15" fill="#8B5CF6" fill-opacity="0.2"/>
  <rect x="475" y="475" width="85" height="8" rx="2" fill="#ffffff" fill-opacity="0.8"/>
  <rect x="475" y="490" width="70" height="6" rx="2" fill="#ffffff" fill-opacity="0.3"/>

  <rect x="600" y="455" width="160" height="85" rx="10" fill="#262626"/>
  <circle cx="630" cy="485" r="15" fill="#C8FF00" fill-opacity="0.2"/>
  <rect x="655" y="475" width="85" height="8" rx="2" fill="#ffffff" fill-opacity="0.8"/>
  <rect x="655" y="490" width="70" height="6" rx="2" fill="#ffffff" fill-opacity="0.3"/>
</svg>
